<mxfile host="app.diagrams.net" modified="2023-09-08T11:24:50.366Z" agent="Mozilla/5.0 (Windows NT 10.0; Win64; x64) AppleWebKit/537.36 (KHTML, like Gecko) Chrome/116.0.0.0 Safari/537.36" etag="EyKJu8yv-Vra_8-UIocS" version="21.7.2" type="device">
  <diagram name="Seite-1" id="jhdS0JMn9jLoY45nOOF-">
    <mxGraphModel dx="2074" dy="1110" grid="1" gridSize="10" guides="1" tooltips="1" connect="1" arrows="1" fold="1" page="1" pageScale="1" pageWidth="827" pageHeight="1169" math="0" shadow="0">
      <root>
        <mxCell id="0" />
        <mxCell id="1" parent="0" />
        <mxCell id="nxksHh6xv7sf7LATEDNT-1" value="" style="rounded=1;whiteSpace=wrap;html=1;" parent="1" vertex="1">
          <mxGeometry x="350" y="480" width="120" height="120" as="geometry" />
        </mxCell>
        <mxCell id="nxksHh6xv7sf7LATEDNT-2" value="&lt;font style=&quot;font-size: 50px;&quot;&gt;EXIT&lt;/font&gt;" style="text;html=1;align=center;verticalAlign=middle;resizable=0;points=[];autosize=1;" parent="1" vertex="1">
          <mxGeometry x="345" y="505" width="130" height="70" as="geometry" />
        </mxCell>
      </root>
    </mxGraphModel>
  </diagram>
</mxfile>
